<?xml version="1.0" encoding="UTF-8" standalone="no"?>
<!-- Created with Inkscape (http://www.inkscape.org/) -->

<svg
   xmlns:dc="http://purl.org/dc/elements/1.1/"
   xmlns:cc="http://creativecommons.org/ns#"
   xmlns:rdf="http://www.w3.org/1999/02/22-rdf-syntax-ns#"
   xmlns:svg="http://www.w3.org/2000/svg"
   xmlns="http://www.w3.org/2000/svg"
   xmlns:sodipodi="http://sodipodi.sourceforge.net/DTD/sodipodi-0.dtd"
   xmlns:inkscape="http://www.inkscape.org/namespaces/inkscape"
   width="64"
   height="64"
   viewBox="0 0 16.933333 16.933334"
   version="1.1"
   id="svg8"
   inkscape:version="0.92.3 (2405546, 2018-03-11)"
   sodipodi:docname="wendy_favicon.svg"
   inkscape:export-filename="wendy_favicon_256x256.png"
   inkscape:export-xdpi="384"
   inkscape:export-ydpi="384">
  <defs
     id="defs2" />
  <sodipodi:namedview
     id="base"
     pagecolor="#ffffff"
     bordercolor="#666666"
     borderopacity="1.0"
     inkscape:pageopacity="0.0"
     inkscape:pageshadow="2"
     inkscape:zoom="15.839192"
     inkscape:cx="19.359788"
     inkscape:cy="24.719001"
     inkscape:document-units="mm"
     inkscape:current-layer="layer1"
     showgrid="false"
     units="px"
     inkscape:window-width="3066"
     inkscape:window-height="1689"
     inkscape:window-x="134"
     inkscape:window-y="55"
     inkscape:window-maximized="1" />
  <metadata
     id="metadata5">
    <rdf:RDF>
      <cc:Work
         rdf:about="">
        <dc:format>image/svg+xml</dc:format>
        <dc:type
           rdf:resource="http://purl.org/dc/dcmitype/StillImage" />
        <dc:title></dc:title>
      </cc:Work>
    </rdf:RDF>
  </metadata>
  <g
     inkscape:label="Layer 1"
     inkscape:groupmode="layer"
     id="layer1"
     transform="translate(0,-280.06665)">
    <path
       style="fill:#0066ff;stroke:#0066ff;stroke-width:0.26458332px;stroke-linecap:butt;stroke-linejoin:miter;stroke-opacity:1"
       d="m 1.1693042,284.40491 c 0,0 0.4878798,-1.37905 0.968852,-1.9043 0.4966497,-0.54237 1.1904818,-1.44837 1.8708866,-1.1693 0.8896649,0.3649 0.9184724,1.87788 0.668174,2.80632 -0.3280557,1.21687 -1.4982182,1.46573 -2.6058779,2.73952 -0.5266141,0.60559 -1.29660542,1.61693 -1.6103839,2.77108 -0.34621105,1.27345 -0.19513185,2.7135 0.14040142,3.81043 0.35253943,1.15253 1.68495488,2.36461 2.97337348,2.50565 1.336917,0.14636 2.7554135,-0.80435 3.57473,-1.87088 1.0500632,-1.3669 1.0845085,-3.32181 1.1358954,-5.04472 0.016483,-0.55265 -0.2672695,-1.63702 -0.2672695,-1.63702 0,0 -0.016922,1.72713 0.1336348,2.57247 0.2044326,1.14784 0.6087976,2.25592 1.0356694,3.34087 0.3756645,0.9548 0.4858077,1.91628 1.336348,2.77292 0.949996,0.95681 3.654274,0.44362 4.944486,-0.60136 0.960582,-0.77799 1.250523,-2.38203 1.202713,-3.50791 -0.07759,-1.82721 -0.34458,-2.77052 -0.935443,-4.00904 -0.656066,-1.37519 -1.827299,-2.44063 -2.80633,-3.60814 -0.896732,-1.06936 -1.543755,-2.51239 -2.80633,-3.10701 -0.6857556,-0.32297 -1.6228551,-0.49195 -2.2717918,-0.10023 -0.737817,0.44537 -1.3166579,1.50383 -1.1024866,2.33861 0.2496563,0.97309 1.4383431,1.6798 2.4388344,1.77066 1.180614,0.10722 2.07659,-1.18044 3.207234,-1.5368 1.302599,-0.41055 4.042453,-0.66817 4.042453,-0.66817 l -0.26727,-1.63703 c 0,0 -2.488088,0.84577 -3.674956,1.40317 -1.087747,0.51085 -1.940542,1.83746 -3.1404175,1.77066 -0.5894128,-0.0328 -1.3591791,-0.45044 -1.4365739,-1.03567 -0.080949,-0.6121 0.5957152,-1.20806 1.1693044,-1.43657 0.3929209,-0.15654 0.8666155,0.004 1.258261,0.16369 0.533435,0.21752 1.221981,0.75398 1.381025,1.03902 0.416827,0.74704 0.57237,1.00605 1.058172,1.71222 0.733954,1.06688 1.554637,2.13376 1.814976,3.23227 0.323454,1.36483 0.419252,2.55627 0.200452,3.80859 -0.118537,0.67846 -0.284743,1.44932 -0.801808,1.90429 -0.624745,0.54973 -1.588745,0.82797 -2.405426,0.66817 -0.786964,-0.15398 -1.456878,-0.80452 -1.9042956,-1.46998 -0.6512366,-0.96861 -0.6878272,-2.23367 -0.9354435,-3.37428 -0.2415912,-1.11286 -0.534539,-3.37427 -0.534539,-3.37427 l -1.1024868,0.23386 c 0,0 0.5310737,1.72184 0.5011303,2.60588 -0.050292,1.48478 -0.1065357,3.23849 -1.1358955,4.30972 -0.6053024,0.62992 -1.6393899,0.88146 -2.5056517,0.7684 -0.7936072,-0.10358 -1.7227961,-0.53385 -2.0379301,-1.26953 -0.6269189,-1.46355 0.081678,-3.35513 0.9688521,-4.67722 0.8270637,-1.23251 2.4023737,-2.43315 2.5390604,-4.00905 0.1134772,-1.30831 -0.3530086,-3.00816 -1.503391,-3.64154 -0.8516237,-0.46889 -2.1825633,-0.18314 -2.8731475,0.50113 -0.69976789,0.69336 -0.53453906,2.90656 -0.53453906,2.90656 z"
       id="path815"
       inkscape:connector-curvature="0"
       sodipodi:nodetypes="caaasssaaacaasasaaaaaaaccaaaaasssaaaaaccaaaasaaacc" />
  </g>
</svg>
