<?xml version="1.0" encoding="UTF-8" standalone="no"?>
<!-- Created with Inkscape (http://www.inkscape.org/) -->

<svg
   xmlns:dc="http://purl.org/dc/elements/1.1/"
   xmlns:cc="http://creativecommons.org/ns#"
   xmlns:rdf="http://www.w3.org/1999/02/22-rdf-syntax-ns#"
   xmlns:svg="http://www.w3.org/2000/svg"
   xmlns="http://www.w3.org/2000/svg"
   xmlns:sodipodi="http://sodipodi.sourceforge.net/DTD/sodipodi-0.dtd"
   xmlns:inkscape="http://www.inkscape.org/namespaces/inkscape"
   width="210mm"
   height="297mm"
   viewBox="0 0 210 297"
   version="1.1"
   id="svg8"
   inkscape:version="0.92.3 (2405546, 2018-03-11)"
   sodipodi:docname="monsters.svg">
  <defs
     id="defs2" />
  <sodipodi:namedview
     id="base"
     pagecolor="#ffffff"
     bordercolor="#666666"
     borderopacity="1.0"
     inkscape:pageopacity="0.0"
     inkscape:pageshadow="2"
     inkscape:zoom="5.6"
     inkscape:cx="356.82288"
     inkscape:cy="690.58492"
     inkscape:document-units="mm"
     inkscape:current-layer="layer1"
     showgrid="false"
     inkscape:snap-object-midpoints="true"
     inkscape:snap-global="false"
     inkscape:window-width="3066"
     inkscape:window-height="1689"
     inkscape:window-x="134"
     inkscape:window-y="55"
     inkscape:window-maximized="1"
     showguides="false" />
  <metadata
     id="metadata5">
    <rdf:RDF>
      <cc:Work
         rdf:about="">
        <dc:format>image/svg+xml</dc:format>
        <dc:type
           rdf:resource="http://purl.org/dc/dcmitype/StillImage" />
        <dc:title />
      </cc:Work>
    </rdf:RDF>
  </metadata>
  <g
     inkscape:label="Layer 1"
     inkscape:groupmode="layer"
     id="layer1">
    <rect
       style="opacity:1;fill:#fff6d5;fill-opacity:1;stroke:#cccccc;stroke-width:0.26499999;stroke-linejoin:round;stroke-miterlimit:4;stroke-dasharray:none;stroke-dashoffset:0;stroke-opacity:1"
       id="rect10-6-6"
       width="60.589584"
       height="60.589584"
       x="74.404617"
       y="83.386757"
       inkscape:export-filename="monster_5.png"
       inkscape:export-xdpi="95.999367"
       inkscape:export-ydpi="95.999367" />
    <path
       style="fill:#217821;stroke:#217821;stroke-width:0.26458332px;stroke-linecap:butt;stroke-linejoin:miter;stroke-opacity:1"
       d="m 101.93193,127.50784 c -0.36698,-2.27707 -0.26947,-5.13066 1.4837,-6.76934 1.0272,-0.96009 2.88586,-1.23685 4.28839,-0.85469 2.06055,0.56145 3.97036,2.30346 4.54879,4.21187 0.4793,1.5813 -0.0173,3.61138 -1.26049,4.7866 -0.82191,0.77694 -3.40951,0.84627 -3.40951,0.84627 l 1.14993,5.50839 -8.70336,0.30521 0.12657,1.40417 1.67667,2.63024 c 0,0 1.88128,-1.77605 2.88436,-1.39363 0.70595,0.26914 0.78054,1.31728 0.68655,2.01644 -0.12007,0.89246 -0.64278,1.92855 -1.53151,2.29861 -0.93286,0.38844 -3.02553,-0.4836 -3.02553,-0.4836 0,0 -0.0744,-0.8279 -0.29298,-1.17588 -0.776778,-1.23651 -1.955664,-2.4245 -3.412618,-2.91095 -0.934782,-0.31212 -2.978496,0.14214 -2.978496,0.14214 l -0.646727,-3.64892 3.988912,-0.44377 c 0,0 2.051163,-2.35863 3.534479,-2.58149 1.37549,-0.20687 3.93202,1.3107 3.93202,1.3107 0,0 -2.72542,-3.25111 -3.03919,-5.19837 z"
       id="path1037-3"
       inkscape:connector-curvature="0"
       sodipodi:nodetypes="aaaaacccccaaacaacccaca" />
    <rect
       style="opacity:1;fill:#f6d5ff;fill-opacity:1;stroke:#cccccc;stroke-width:0.26499999;stroke-linejoin:round;stroke-miterlimit:4;stroke-dasharray:none;stroke-dashoffset:0;stroke-opacity:1"
       id="rect10-6-3"
       width="60.589584"
       height="60.589584"
       x="9.9596701"
       y="83.197769"
       inkscape:export-filename="monster_4.png"
       inkscape:export-xdpi="96"
       inkscape:export-ydpi="96" />
    <path
       style="fill:#3e3748;stroke:#3e3748;stroke-width:0.26458332px;stroke-linecap:butt;stroke-linejoin:miter;stroke-opacity:1"
       d="m 37.183406,98.798733 c 0,0 -1.276385,-0.61967 -1.464656,-1.228423 -0.241612,-0.781227 0.661458,-2.362351 0.661458,-2.362351 0,0 -0.05886,1.15728 0.188989,1.653646 0.184137,0.368775 0.510695,0.708552 0.897692,0.850448 0.266566,0.09774 0.850447,-0.04725 0.850447,-0.04725 l 0.330729,-0.472472 0.519716,0.566965 0.566965,-0.04725 c 0,0 0.627273,-0.45879 0.755952,-0.803201 0.13791,-0.369118 0.0655,-0.80361 -0.04725,-1.181174 -0.105108,-0.351968 -0.566962,-0.944941 -0.566962,-0.944941 0,0 0.90274,0.401826 1.133927,0.803198 0.260469,0.45221 0.259239,1.050691 0.14174,1.559152 -0.13683,0.592111 -0.944938,1.559153 -0.944938,1.559153 l -2.882069,0.283483 v 0 z"
       id="path175"
       inkscape:connector-curvature="0"
       sodipodi:nodetypes="cacaaccccaacaacccc" />
    <path
       style="fill:#803300;stroke:#803300;stroke-width:0.26458332px;stroke-linecap:butt;stroke-linejoin:miter;stroke-opacity:1"
       d="m 36.616444,115.8549 -1.039437,1.65365 c 0,0 -1.365408,-0.30202 -1.889879,0.0473 -0.545662,0.36344 -0.803201,1.79538 -0.803201,1.79538 0,0 0.825885,-0.70545 1.322917,-0.89769 0.311594,-0.12051 0.728674,-0.3471 0.992188,-0.14174 0.237325,0.18495 0.177808,0.60857 0.0945,0.89769 -0.07764,0.26944 -0.279324,0.51711 -0.519718,0.66146 -0.384032,0.2306 -1.322917,0.23624 -1.322917,0.23624 0,0 0.943238,0.43339 1.41741,0.33072 0.504906,-0.10933 1.007966,-0.47774 1.228424,-0.94494 0.201736,-0.42753 -0.04725,-1.41741 -0.04725,-1.41741 l 1.086681,-1.6064 z"
       id="path138"
       inkscape:connector-curvature="0"
       sodipodi:nodetypes="ccacaaaacaaccc" />
    <path
       style="fill:#803300;stroke:#803300;stroke-width:0.26458332px;stroke-linecap:butt;stroke-linejoin:miter;stroke-opacity:1"
       d="m 38.948243,116.89288 1.590503,1.13371 c 0,0 -0.380794,1.34556 -0.06252,1.88943 0.331142,0.56585 1.745712,0.9061 1.745712,0.9061 0,0 -0.656304,-0.86545 -0.819359,-1.37281 -0.102214,-0.31807 -0.304203,-0.7476 -0.08389,-0.99874 0.198418,-0.22619 0.617867,-0.14218 0.901662,-0.0422 0.264477,0.0931 0.500018,0.30888 0.630166,0.55725 0.207912,0.39677 0.159025,1.3344 0.159025,1.3344 0,0 0.487429,-0.91648 0.412465,-1.39581 -0.07983,-0.51041 -0.418405,-1.03401 -0.872016,-1.28122 -0.415094,-0.22622 -1.417762,-0.0351 -1.417762,-0.0351 l -1.54059,-1.17812 z"
       id="path138-1"
       inkscape:connector-curvature="0"
       sodipodi:nodetypes="ccacaaaacaaccc"
       inkscape:transform-center-x="3.2619147"
       inkscape:transform-center-y="4.4165785" />
    <path
       style="fill:#1f1c24;stroke:#1f1c24;stroke-width:0.26458332px;stroke-linecap:butt;stroke-linejoin:miter;stroke-opacity:1"
       d="m 38.175595,116.37462 c 0,0 -0.33545,3.47686 0.566963,4.8192 0.873061,1.29868 3.6685,0.76671 4.110492,2.26786 0.262711,0.89225 -0.513344,1.99889 -1.322918,2.45684 -2.031026,1.1489 -5.150991,-1.76379 -6.992558,-0.33073 -0.684956,0.53302 -1.010914,1.8358 -0.519717,2.55134 0.967113,1.40882 5.05543,0.85045 5.05543,0.85045 l 0.566965,0.75595 c 0,0 -3.848393,0.18874 -5.575149,-0.51972 -0.414166,-0.16993 -0.869979,-0.43608 -1.039434,-0.85044 -0.329824,-0.8065 -0.01819,-1.78114 0.283482,-2.59859 0.145188,-0.39341 0.331511,-0.85619 0.708705,-1.03943 2.087194,-1.01397 4.832728,1.43242 6.945312,0.47247 0.45023,-0.20458 0.990277,-0.69539 0.897695,-1.18118 -0.261927,-1.37436 -2.837444,-0.9944 -3.590774,-2.17336 -0.998257,-1.56227 -0.614212,-5.5279 -0.614212,-5.5279 z"
       id="path155"
       inkscape:connector-curvature="0"
       sodipodi:nodetypes="caaaaaccaaaaaaacc" />
    <path
       style="fill:#3e3748;stroke:#1f1c24;stroke-width:0.26458332px;stroke-linecap:butt;stroke-linejoin:miter;stroke-opacity:1"
       d="m 38.553572,129.32031 c 0.04725,-0.28348 0.472469,-1.32292 0.472469,-1.32292 l 0.377976,0.56697 0.755952,-1.18118 0.330729,0.70871 0.850447,-0.42523 -0.04725,1.13393 0.850445,0.37798 -1.464657,0.0945 0.614212,0.66146 -1.228424,-0.0472 -0.04725,0.8977 -1.039434,-0.66146 z"
       id="path157"
       inkscape:connector-curvature="0" />
    <rect
       style="opacity:1;fill:#ffffff;fill-opacity:1;stroke:#cccccc;stroke-width:0.26499999;stroke-linejoin:round;stroke-miterlimit:4;stroke-dasharray:none;stroke-dashoffset:0;stroke-opacity:1"
       id="rect10-6"
       width="60.589584"
       height="60.589584"
       x="137.41682"
       y="19.079992"
       inkscape:export-filename="monster_3.png"
       inkscape:export-xdpi="95.999367"
       inkscape:export-ydpi="95.999367" />
    <path
       style="fill:#803300;stroke:#803300;stroke-width:0.26458332px;stroke-linecap:butt;stroke-linejoin:miter;stroke-opacity:1"
       d="m 159.52193,66.455485 -0.28349,2.267858 -1.41741,1.22842 1.55916,-0.519715 0.33073,1.370163 0.47247,-1.511906 1.46465,1.039434 -1.13393,-1.795385 -0.47246,-2.126115 z"
       id="path111"
       inkscape:connector-curvature="0" />
    <path
       style="fill:#803300;stroke:#803300;stroke-width:0.26458332px;stroke-linecap:butt;stroke-linejoin:miter;stroke-opacity:1"
       d="m 163.9033,67.034608 -0.28349,2.267858 -1.41741,1.22842 1.55916,-0.519715 0.33073,1.370163 0.47247,-1.511906 1.46465,1.039434 -1.13393,-1.795385 -0.47246,-2.126115 z"
       id="path111-6"
       inkscape:connector-curvature="0" />
    <path
       style="fill:#803300;stroke:#803300;stroke-width:0.26458332px;stroke-linecap:butt;stroke-linejoin:miter;stroke-opacity:1"
       d="m 172.47864,67.129101 -0.28349,2.267858 -1.41741,1.22842 1.55916,-0.519715 0.33073,1.370163 0.47247,-1.511906 1.46465,1.039434 -1.13393,-1.795385 -0.47246,-2.126115 z"
       id="path111-2"
       inkscape:connector-curvature="0" />
    <path
       style="fill:#803300;stroke:#803300;stroke-width:0.26458332px;stroke-linecap:butt;stroke-linejoin:miter;stroke-opacity:1"
       d="m 176.42376,66.727502 -0.28349,2.267858 -1.41741,1.22842 1.55916,-0.519715 0.33073,1.370163 0.47247,-1.511906 1.46465,1.039434 -1.13393,-1.795385 -0.47246,-2.126115 z"
       id="path111-9"
       inkscape:connector-curvature="0" />
    <path
       style="fill:#918a6f;stroke:#918a6f;stroke-width:0.26458332px;stroke-linecap:butt;stroke-linejoin:miter;stroke-opacity:1"
       d="m 158.05727,44.7691 c 0,0 -6.86346,-2.371784 -7.89025,-5.386159 -0.73709,-2.163901 1.07455,-4.490317 2.12611,-6.52009 1.06641,-2.058426 4.15774,-5.575149 4.15774,-5.575149 0,0 3.62001,3.843252 4.58296,6.236607 0.9428,2.343284 0.99219,7.512277 0.99219,7.512277 0,0 2.7339,-0.939047 4.15774,-0.992187 1.88101,-0.0702 5.57515,0.897694 5.57515,0.897694 0,0 -0.0277,-5.625482 1.27567,-7.984749 1.47866,-2.676626 6.89806,-6.047618 6.89806,-6.047618 0,0 5.46977,4.456542 5.43341,7.559524 -0.0472,4.025189 -7.27604,9.638392 -7.27604,9.638392 0,0 1.1475,1.891562 0.94494,2.882069 -0.41142,2.011783 -4.06325,4.630209 -4.06325,4.630209 0,0 5.95646,1.824449 7.89026,4.063243 1.24038,1.436009 2.45638,3.590617 1.84263,5.38616 -1.26872,3.711667 -5.92984,6.030897 -9.82738,6.472843 -5.62518,0.637843 -10.83814,0.05618 -16.48921,-0.566965 -3.17165,-0.349738 -6.94114,-2.690707 -7.60677,-5.811382 -0.42633,-1.998771 1.45425,-3.971585 2.92931,-5.386163 2.06392,-1.979289 7.70127,-3.779761 7.70127,-3.779761 0,0 -2.5516,-1.160983 -3.16555,-2.315104 -0.76981,-1.447092 -0.18899,-4.913691 -0.18899,-4.913691 z"
       id="path109"
       inkscape:connector-curvature="0"
       sodipodi:nodetypes="caacacacacacacaassaacac" />
    <path
       style="fill:#ffd5d5;stroke:#ff0000;stroke-width:0.26458332;stroke-linecap:butt;stroke-linejoin:miter;stroke-opacity:1"
       d="m 161.30176,49.256893 c 0,0 2.43047,0.761285 3.68526,0.944941 1.965,0.287606 4.001,0.601134 5.95313,0.236233 1.40057,-0.261801 3.9215,-1.700893 3.9215,-1.700893 0,0 -0.50616,2.138875 -1.32291,2.740327 -1.37201,1.010343 -3.35156,0.751615 -5.05544,0.755954 -1.54348,0.0039 -3.18358,-0.01024 -4.58296,-0.661458 -1.05178,-0.489458 -2.59858,-2.315104 -2.59858,-2.315104 z"
       id="path144-1"
       inkscape:connector-curvature="0"
       sodipodi:nodetypes="caacaaac" />
    <rect
       style="opacity:1;fill:#e3f4d7;fill-opacity:1;stroke:#cccccc;stroke-width:0.26499999;stroke-linejoin:round;stroke-miterlimit:4;stroke-dasharray:none;stroke-dashoffset:0;stroke-opacity:1"
       id="rect10-3"
       width="60.589584"
       height="60.589584"
       x="73.806686"
       y="18.812723"
       inkscape:export-filename="monster_2.png"
       inkscape:export-xdpi="95.999367"
       inkscape:export-ydpi="95.999367" />
    <path
       style="fill:#d4aa00;stroke:#aa8800;stroke-width:0.26458332px;stroke-linecap:butt;stroke-linejoin:miter;stroke-opacity:1"
       d="m 86.556547,41.818823 c -1.083748,1.56016 -1.181176,5.575149 -1.181176,5.575149 -0.778207,-2.909533 -0.89836,-6.404003 -2.69308,-8.409969 2.663657,0.570267 5.486982,0.182521 8.268229,0.04725 0,0 -3.404414,1.363004 -4.393973,2.78757 z"
       id="path107"
       inkscape:connector-curvature="0"
       sodipodi:nodetypes="accca" />
    <path
       style="fill:#677821;stroke:#89a02c;stroke-width:0.26458332px;stroke-linecap:butt;stroke-linejoin:miter;stroke-opacity:1"
       d="m 96.698553,63.60157 0.791946,0.184292 -0.07194,2.349736 c 0,0 0.502006,-0.16042 0.755955,-0.138218 0.1743,0.01525 0.401359,0.0033 0.503966,0.184295 0.19041,0.33584 -0.03597,1.243977 -0.03597,1.243977 l -1.907881,-0.27644 -0.647961,-0.04608 c 0,0 -0.07483,-0.787195 0.07201,-1.105759 0.06594,-0.143079 0.255448,-0.135364 0.32398,-0.27644 0.293907,-0.605034 0.215983,-2.119369 0.215983,-2.119369 z"
       id="path39"
       inkscape:connector-curvature="0"
       sodipodi:nodetypes="cccaacccaac" />
    <path
       style="fill:#677821;stroke:#89a02c;stroke-width:0.26458332px;stroke-linecap:butt;stroke-linejoin:miter;stroke-opacity:1"
       d="m 100.10646,64.038903 0.79195,0.184292 -0.0721,2.349736 c 0,0 0.50201,-0.160421 0.75596,-0.138219 0.1743,0.01525 0.40136,0.0033 0.50396,0.184295 0.19041,0.335838 -0.036,1.243975 -0.036,1.243975 l -1.90789,-0.276437 -0.647949,-0.04608 c 0,0 -0.07486,-0.787193 0.07205,-1.105756 0.06589,-0.14308 0.255439,-0.135365 0.323973,-0.27644 0.293906,-0.605034 0.215986,-2.11937 0.215986,-2.11937 z"
       id="path39-3"
       inkscape:connector-curvature="0"
       sodipodi:nodetypes="cccaacccaac" />
    <path
       style="fill:#677821;stroke:#89a02c;stroke-width:0.26458332px;stroke-linecap:butt;stroke-linejoin:miter;stroke-opacity:1"
       d="m 103.30628,65.046717 0.79195,0.184292 -0.072,2.349736 c 0,0 0.50199,-0.16042 0.75595,-0.138219 0.17429,0.01525 0.40135,0.0033 0.50396,0.184296 0.19042,0.335837 -0.036,1.243976 -0.036,1.243976 l -1.90788,-0.276439 -0.64796,-0.04607 c 0,0 -0.0749,-0.787194 0.0721,-1.105759 0.0659,-0.14308 0.25544,-0.135364 0.32398,-0.276439 0.29392,-0.605034 0.21599,-2.11937 0.21599,-2.11937 z"
       id="path39-6"
       inkscape:connector-curvature="0"
       sodipodi:nodetypes="cccaacccaac" />
    <path
       style="fill:#677821;stroke:#89a02c;stroke-width:0.26458332px;stroke-linecap:butt;stroke-linejoin:miter;stroke-opacity:1"
       d="m 106.86946,65.190928 0.79196,0.184294 -0.072,2.349735 c 0,0 0.50201,-0.16042 0.75596,-0.138218 0.1743,0.01525 0.40134,0.0033 0.50395,0.184295 0.19041,0.335839 -0.036,1.243976 -0.036,1.243976 l -1.9079,-0.276437 -0.64795,-0.04608 c 0,0 -0.0749,-0.787194 0.0721,-1.105757 0.0659,-0.143079 0.25544,-0.135364 0.32397,-0.27644 0.29391,-0.605035 0.216,-2.119369 0.216,-2.119369 z"
       id="path39-7"
       inkscape:connector-curvature="0"
       sodipodi:nodetypes="cccaacccaac" />
    <path
       style="fill:#677821;stroke:#89a02c;stroke-width:0.26458332px;stroke-linecap:butt;stroke-linejoin:miter;stroke-opacity:1"
       d="m 110.28683,64.586972 0.79195,0.184291 -0.0721,2.349736 c 0,0 0.502,-0.160422 0.75596,-0.138219 0.1743,0.01525 0.40135,0.0033 0.50396,0.184296 0.19041,0.335838 -0.036,1.243975 -0.036,1.243975 l -1.90789,-0.276437 -0.64797,-0.04608 c 0,0 -0.0749,-0.787195 0.072,-1.105759 0.0659,-0.143079 0.25545,-0.135363 0.32398,-0.276438 0.29391,-0.605033 0.21598,-2.119369 0.21598,-2.119369 z"
       id="path39-5"
       inkscape:connector-curvature="0"
       sodipodi:nodetypes="cccaacccaac" />
    <path
       style="fill:#b3b3b3;stroke:#b3b3b3;stroke-width:0.26458332px;stroke-linecap:butt;stroke-linejoin:miter;stroke-opacity:1"
       d="m 107.53422,38.558778 -0.0472,-1.464656 1.08668,1.41741 0.0472,-1.181174 1.03944,0.803198 -0.0473,-0.897694 1.03944,1.039436 z"
       id="path103"
       inkscape:connector-curvature="0" />
    <path
       style="fill:#b3b3b3;stroke:#b3b3b3;stroke-width:0.26458332px;stroke-linecap:butt;stroke-linejoin:miter;stroke-opacity:1"
       d="m 107.109,36.385416 0.0945,-1.370163 3.49628,0.803198 -0.75595,1.228423 -0.47247,-1.41741 -0.61421,1.228424 -0.66146,-1.13393 -0.28348,1.039434 -0.42523,-1.370164 z"
       id="path105"
       inkscape:connector-curvature="0" />
    <rect
       style="opacity:1;fill:#ffb380;fill-opacity:1;stroke:#cccccc;stroke-width:0.26499999;stroke-linejoin:round;stroke-miterlimit:4;stroke-dasharray:none;stroke-dashoffset:0;stroke-opacity:1"
       id="rect10"
       width="60.589584"
       height="60.589584"
       x="9.8273811"
       y="18.431547"
       inkscape:export-filename="monster_1.png"
       inkscape:export-xdpi="95.999367"
       inkscape:export-ydpi="95.999367" />
    <path
       style="fill:#165016;stroke:#165016;stroke-width:0.26458332px;stroke-linecap:butt;stroke-linejoin:miter;stroke-opacity:1"
       d="m 22.250188,61.735998 c 0,0 1.804069,12.762119 1.870887,12.093946 0.06682,-0.668174 3.140417,-14.365738 3.140417,-14.365738 0,0 2.071338,14.633006 2.138156,14.365738 0.06682,-0.267269 3.140416,-12.762122 3.140416,-12.762122 0,0 2.806329,15.301182 3.006783,15.033913 0.200451,-0.267271 3.608139,-13.02939 3.608139,-13.02939 0,0 2.939965,13.563928 2.939965,13.296659 0,-0.267269 2.939963,-13.096208 2.939963,-13.096208 l 2.873147,9.220801 2.672697,-9.822156 c 0,0 4.610399,11.759858 4.610399,11.492589 0,-0.267269 1.670433,-15.635266 1.670433,-15.635266 L 41.159506,58.461946 25.724692,57.192415 Z"
       id="path57"
       inkscape:connector-curvature="0" />
    <flowRoot
       xml:space="preserve"
       id="flowRoot12"
       style="line-height:1.25;letter-spacing:0px;word-spacing:0px;opacity:1;vector-effect:none;fill:#000000;fill-opacity:1;stroke:none;stroke-width:1;stroke-linecap:butt;stroke-linejoin:miter;stroke-miterlimit:4;stroke-dasharray:none;stroke-dashoffset:0;stroke-opacity:1"
       transform="scale(0.26458333)"><flowRegion
         id="flowRegion14"><rect
           id="rect16"
           width="180.71428"
           height="30.714285"
           x="16.428572"
           y="13.948256" /></flowRegion><flowPara
         id="flowPara18">monsters.svg</flowPara></flowRoot>    <path
       style="fill:#008000;stroke:#008000;stroke-width:0.26458332px;stroke-linecap:butt;stroke-linejoin:miter;stroke-opacity:1"
       d="m 17.424893,60.428826 c -0.913113,-3.960641 -1.487415,-8.084888 -1.171917,-12.13716 0.560938,-7.204717 5.398438,-20.996672 5.398438,-20.996672 0,0 1.979076,3.169768 2.293494,4.96571 0.516418,2.949757 -0.772091,8.950624 -0.772091,8.950624 0,0 10.072468,-4.518712 14.435815,-4.636925 4.481708,-0.121419 20.201102,6.641446 20.201102,6.641446 0,0 -0.677583,-6.481775 -0.01,-9.617237 0.370042,-1.737938 2.176625,-4.866062 2.176625,-4.866062 0,0 4.322216,12.040561 4.629058,20.582339 0.232067,6.46022 -6.572661,19.778898 -6.572661,19.778898 l -3.982181,-8.895872 -2.48927,11.734628 -2.991386,-6.881853 -3.531486,8.237196 -3.23966,-8.002352 -3.111587,10.241717 -2.069374,-11.020598 c 0,0 -3.521989,10.518484 -3.521989,9.76253 0,-0.755952 -3.424713,-13.315313 -3.424713,-13.315313 l -3.212797,10.016368 -1.133929,-9.638393 -3.96875,9.638393 c 0,0 -3.088278,-6.887126 -3.930761,-10.541412 z"
       id="path20"
       inkscape:connector-curvature="0"
       sodipodi:nodetypes="aacacscacsccccccccscccca" />
    <ellipse
       style="opacity:1;fill:none;fill-opacity:1;stroke:#cccccc;stroke-width:0.26499999;stroke-linejoin:round;stroke-miterlimit:4;stroke-dasharray:none;stroke-dashoffset:0;stroke-opacity:1"
       id="path22"
       cx="-69.458328"
       cy="26.810242"
       rx="30.427084"
       ry="29.860119" />
    <path
       style="fill:#ffffff;stroke:#000000;stroke-width:0.26458332px;stroke-linecap:butt;stroke-linejoin:miter;stroke-opacity:1"
       d="m 30.805059,44.88988 c -0.05491,-1.804196 0.844384,-4.611042 2.645833,-4.724702 1.798155,-0.113452 3.212798,4.346726 3.212798,4.346726 0,0 -0.403944,5.502549 -2.456846,5.669642 -2.090014,0.170114 -3.337997,-3.195711 -3.401785,-5.291666 z"
       id="path24"
       inkscape:connector-curvature="0"
       sodipodi:nodetypes="aacaa" />
    <path
       style="fill:#ffffff;stroke:#000000;stroke-width:0.26458332px;stroke-linecap:butt;stroke-linejoin:miter;stroke-opacity:1"
       d="m 36.66369,44.511904 c 0,0 2.314316,-4.60746 4.346726,-4.346726 2.100427,0.26946 3.629711,3.404458 3.212798,5.480653 -0.336602,1.676251 -2.403558,3.284644 -4.101041,3.08051 -1.804281,-0.216978 -3.458483,-4.214437 -3.458483,-4.214437"
       id="path26"
       inkscape:connector-curvature="0"
       sodipodi:nodetypes="caaac" />
    <ellipse
       style="opacity:1;fill:#008080;fill-opacity:1;stroke:#008080;stroke-width:0.26499999;stroke-linejoin:round;stroke-miterlimit:4;stroke-dasharray:none;stroke-dashoffset:0;stroke-opacity:1"
       id="path28"
       cx="33.733929"
       cy="45.175354"
       rx="1.6536458"
       ry="1.9843751" />
    <ellipse
       style="opacity:1;fill:#008080;fill-opacity:1;stroke:#008080;stroke-width:0.26499999;stroke-linejoin:round;stroke-miterlimit:4;stroke-dasharray:none;stroke-dashoffset:0;stroke-opacity:1"
       id="path28-3"
       cx="40.483219"
       cy="44.449249"
       rx="1.9371279"
       ry="2.0788691" />
    <path
       style="fill:#ff0000;stroke:#ff5555;stroke-width:0.26458332px;stroke-linecap:butt;stroke-linejoin:miter;stroke-opacity:1"
       d="m 23.386083,53.651094 c 0,0 2.232942,-1.962016 3.60814,-2.004521 2.170728,-0.06709 3.735537,3.150057 5.879928,2.80633 1.399891,-0.22439 1.670593,-2.735965 3.073601,-2.939965 1.833488,-0.266592 3.093531,2.457086 4.944485,2.53906 1.537067,0.06807 2.737784,-1.749057 4.276313,-1.737251 1.59675,0.01225 2.824357,2.059737 4.409948,1.870887 1.707389,-0.203357 2.427831,-2.947754 4.142676,-3.073601 1.411164,-0.103561 3.741774,2.004523 3.741774,2.004523 0,0 -2.26502,-0.287584 -3.340869,0 -1.638685,0.438035 -2.720116,2.391987 -4.409948,2.539061 -1.558264,0.135623 -2.846662,-1.65579 -4.409946,-1.603619 -1.654449,0.05521 -2.892267,2.120304 -4.543583,2.004521 -1.516688,-0.106343 -2.359677,-2.286217 -3.875408,-2.405425 -1.83098,-0.144001 -3.24328,2.219287 -5.078121,2.138156 -1.712004,-0.0757 -2.867203,-2.049832 -4.543581,-2.405425 -1.266688,-0.268689 -3.875409,0.267269 -3.875409,0.267269 z"
       id="path45"
       inkscape:connector-curvature="0"
       sodipodi:nodetypes="caaaaaaacaaaaaaac" />
    <path
       style="fill:#005500;stroke:#005500;stroke-width:0.26458332px;stroke-linecap:butt;stroke-linejoin:miter;stroke-opacity:1"
       d="m 21.715649,31.000001 c 0,0 1.259055,1.347177 1.469982,2.204974 0.614097,2.497404 -0.125742,5.194446 -0.814619,7.672266 -0.547568,1.96955 -1.94701,3.618098 -2.593063,5.557575 -0.75513,2.266929 -1.469982,7.015827 -1.469982,7.015827 0,0 -1.177232,-5.330281 -1.002261,-8.018087 0.224241,-3.444653 1.515611,-6.747361 2.605878,-10.022607 0.501629,-1.506933 1.80407,-4.409948 1.80407,-4.409948 z"
       id="path47"
       inkscape:connector-curvature="0"
       sodipodi:nodetypes="caaacaacc" />
    <path
       style="fill:#005500;stroke:#005500;stroke-width:0.26458332px;stroke-linecap:butt;stroke-linejoin:miter;stroke-opacity:1"
       d="m 58.532026,33.939966 c 0.18878,-1.009205 1.26953,-2.806329 1.26953,-2.806329 0,0 2.411876,8.17934 3.207234,12.361214 0.444418,2.336683 1.133094,4.718822 0.868627,7.082644 -0.271029,2.422474 -2.472243,6.882191 -2.472243,6.882191 0,0 1.244516,-4.649256 1.135896,-7.015826 -0.102291,-2.228683 -0.73242,-4.457029 -1.670436,-6.481287 -0.470268,-1.014848 -1.569649,-1.683289 -1.937703,-2.739511 -0.800062,-2.295971 -0.847959,-4.893175 -0.400905,-7.283096 z"
       id="path49"
       inkscape:connector-curvature="0"
       sodipodi:nodetypes="acaacaaaa" />
    <path
       style="fill:#6c6753;stroke:#6c6753;stroke-width:0.26458332px;stroke-linecap:butt;stroke-linejoin:miter;stroke-opacity:1"
       d="m 33.208237,38.216278 c 0,0 -1.989616,-3.614147 -2.204971,-5.612659 -0.2852,-2.64668 1.269529,-7.884451 1.269529,-7.884451 0,0 0.713316,4.472249 1.202713,6.681737 0.453295,2.046497 1.603615,6.080383 1.603615,6.080383 z"
       id="path51"
       inkscape:connector-curvature="0"
       sodipodi:nodetypes="cacacc" />
    <path
       style="fill:#6c6753;stroke:#6c6753;stroke-width:0.26458332px;stroke-linecap:butt;stroke-linejoin:miter;stroke-opacity:1"
       d="m 37.016828,37.548104 c 0,0 -1.677016,-3.328122 -1.469983,-5.078118 0.174614,-1.475967 2.05536,-2.396701 2.204974,-3.875411 0.115569,-1.142226 -1.187016,-2.132066 -1.069078,-3.27405 0.124017,-1.200855 1.80407,-3.140417 1.80407,-3.140417 0,0 -0.484177,2.009585 -0.334087,3.006782 0.191521,1.272469 1.524108,2.254583 1.536801,3.541321 0.0133,1.348293 -1.293868,2.415482 -1.536801,3.741775 -0.293046,1.599882 0.133636,4.877667 0.133636,4.877667 z"
       id="path53"
       inkscape:connector-curvature="0"
       sodipodi:nodetypes="caaacaaacc" />
    <path
       style="fill:#6c6753;stroke:#6c6753;stroke-width:0.26458332px;stroke-linecap:butt;stroke-linejoin:miter;stroke-opacity:1"
       d="m 39.489073,37.414472 2.472244,0.734991 c 0,0 2.660636,-3.377662 3.00678,-5.412208 0.375238,-2.205554 -1.642326,-4.435748 -1.135896,-6.614922 0.180517,-0.776766 1.403165,-1.937704 1.403165,-1.937704 0,0 -2.36135,0.594462 -2.939963,1.5368 -0.95571,1.556483 0.320554,3.694099 -0.06682,5.479025 -0.480103,2.2122 -2.73951,6.214018 -2.73951,6.214018 z"
       id="path55"
       inkscape:connector-curvature="0"
       sodipodi:nodetypes="ccaacaac" />
    <circle
       style="opacity:1;fill:#000000;fill-opacity:1;stroke:#000000;stroke-width:0.26499999;stroke-linejoin:round;stroke-miterlimit:4;stroke-dasharray:none;stroke-dashoffset:0;stroke-opacity:1"
       id="path59"
       cx="33.864792"
       cy="45.078465"
       r="0.4009043" />
    <circle
       style="opacity:1;fill:#000000;fill-opacity:1;stroke:#000000;stroke-width:0.26499999;stroke-linejoin:round;stroke-miterlimit:4;stroke-dasharray:none;stroke-dashoffset:0;stroke-opacity:1"
       id="path59-6"
       cx="40.348957"
       cy="44.6064"
       r="0.4009043" />
    <path
       style="fill:none;stroke:#d38d5f;stroke-width:0.26458332px;stroke-linecap:butt;stroke-linejoin:miter;stroke-opacity:1"
       d="m 29.800552,40.287617 c 0,0 1.823674,-1.052304 2.839739,-1.135893 1.03409,-0.08507 2.009775,0.546431 3.040192,0.668173 0.586247,0.06926 1.187281,0.1237 1.77066,0.03341 0.824803,-0.127655 1.546345,-0.679894 2.372016,-0.801809 0.672385,-0.09928 1.369424,-0.05589 2.03793,0.06682 0.810539,0.14878 2.338609,0.801806 2.338609,0.801806"
       id="path76"
       inkscape:connector-curvature="0"
       sodipodi:nodetypes="caaaaac" />
    <path
       style="fill:#22241c;stroke:#22241c;stroke-width:0.26458332px;stroke-linecap:butt;stroke-linejoin:miter;stroke-opacity:1"
       d="m -13.527912,30.175901 c 0,0 -0.380771,-0.983283 -0.745345,-1.228991 -0.471304,-0.317639 -1.608378,-0.144589 -1.608378,-0.144589 0,0 0.334761,0.31806 0.529587,0.409665 0.253978,0.119418 0.572519,-0.0063 0.804189,0.168685 0.374304,0.282688 0.784575,1.301286 0.784575,1.301286 z"
       id="path78"
       inkscape:connector-curvature="0"
       sodipodi:nodetypes="cacaacc" />
    <path
       style="fill:#22241c;stroke:#22241c;stroke-width:0.26458332px;stroke-linecap:butt;stroke-linejoin:miter;stroke-opacity:1"
       d="m -12.757236,28.171452 c 0,0 -0.376444,-1.137879 -0.871957,-1.426297 -0.2216,-0.128985 -0.527438,-0.102708 -0.780172,-0.04322 -0.313072,0.07369 -0.826064,0.475432 -0.826064,0.475432 0,0 0.609812,-0.09538 0.917849,-0.108053 0.206461,-0.0085 0.448817,-0.08805 0.619549,0.02161 0.427318,0.274472 0.619547,1.339854 0.619547,1.339854 z"
       id="path80"
       inkscape:connector-curvature="0"
       sodipodi:nodetypes="caacaacc" />
    <path
       style="fill:#22241c;stroke:#22241c;stroke-width:0.26458332px;stroke-linecap:butt;stroke-linejoin:miter;stroke-opacity:1"
       d="m -11.858561,29.023929 0.353,0.42371 c 0,0 0.299732,-0.642723 0.560646,-0.823878 0.192171,-0.133426 0.445007,-0.199248 0.66447,-0.141237 0.168519,0.04454 0.4152936,0.353091 0.4152936,0.353091 0,0 -0.01124,-0.633742 -0.2076466,-0.800339 -0.288181,-0.244441 -0.754917,-0.175684 -1.079764,0 -0.337573,0.182567 -0.705999,0.988653 -0.705999,0.988653 z"
       id="path82"
       inkscape:connector-curvature="0"
       sodipodi:nodetypes="ccaacaac" />
    <path
       style="fill:#22280b;stroke:#22241c;stroke-width:0.26458332px;stroke-linecap:butt;stroke-linejoin:miter;stroke-opacity:1"
       d="m -15.118555,38.519612 c 0,0 -0.347305,-0.677642 -0.607675,-0.810117 -0.345452,-0.175763 -0.772609,-0.139121 -1.096779,0.106594 -0.105805,0.0802 -0.222321,0.40506 -0.222321,0.40506 0,0 0.204829,-0.102282 0.311248,-0.127914 0.273257,-0.06582 0.57006,-0.201898 0.829996,-0.06396 0.26228,0.139185 0.607675,0.831437 0.607675,0.831437 z"
       id="path84"
       inkscape:connector-curvature="0"
       sodipodi:nodetypes="caacaacc" />
    <path
       style="fill:#22280b;stroke:#22241c;stroke-width:0.26458332px;stroke-linecap:butt;stroke-linejoin:miter;stroke-opacity:1"
       d="m -14.138681,36.999269 c 0,0 -0.286532,-1.222283 -0.830788,-1.534244 -0.330899,-0.189667 -0.806888,-0.128604 -1.190047,-0.03884 -0.376772,0.08826 -0.987965,0.543784 -0.987965,0.543784 0,0 0.721181,-0.237781 1.100233,-0.252471 0.265515,-0.01029 0.573274,-0.02143 0.785881,0.116524 0.519468,0.337058 0.853241,1.514823 0.853241,1.514823 z"
       id="path86"
       inkscape:connector-curvature="0"
       sodipodi:nodetypes="caacaacc" />
    <path
       style="fill:#22280b;stroke:#22241c;stroke-width:0.26458332px;stroke-linecap:butt;stroke-linejoin:miter;stroke-opacity:1"
       d="m -13.314983,38.029469 -0.126789,-0.42869 c 0,0 0.559525,-0.759263 0.950911,-0.970192 0.293599,-0.158228 0.659492,-0.289763 0.972044,-0.1805 0.241453,0.08441 0.528283,0.586626 0.528283,0.586626 0,0 -0.418742,-0.147505 -0.633941,-0.135375 -0.235822,0.01329 -0.468827,0.105005 -0.676204,0.225627 -0.386482,0.224801 -1.014304,0.902504 -1.014304,0.902504 z"
       id="path88"
       inkscape:connector-curvature="0"
       sodipodi:nodetypes="ccaacaac" />
    <path
       style="fill:#22280b;stroke:#22241c;stroke-width:0.26458332px;stroke-linecap:butt;stroke-linejoin:miter;stroke-opacity:1"
       d="m -12.728217,40.064716 c 0,0 0.635807,-0.548098 0.99055,-0.63948 0.212639,-0.05477 0.459227,-0.09657 0.64601,0.06395 0.134394,0.115499 0.258404,0.57553 0.258404,0.57553 0,0 0.109059,-0.830509 -0.0646,-1.087113 -0.245064,-0.362114 -0.692969,-0.21563 -1.033616,-0.127897 -0.341819,0.08804 -0.947482,0.63948 -0.947482,0.63948 z"
       id="path90"
       inkscape:connector-curvature="0"
       sodipodi:nodetypes="caacaacc" />
    <path
       style="fill:#677821;stroke:#677821;stroke-width:0.26458332px;stroke-linecap:butt;stroke-linejoin:miter;stroke-opacity:1"
       d="m 86.10345,42.514762 -0.644788,-1.478323 1.376381,0.524556 c 0,0 2.180973,2.302427 3.29216,3.43355 1.362629,1.387077 2.33131,3.392723 4.138053,4.111347 1.305707,0.51934 2.906929,0.409659 4.214276,-0.105538 1.693518,-0.667378 4.118308,-1.804343 4.084718,-3.624303 -0.0277,-1.500226 -2.00701,-2.550969 -3.475056,-2.861293 -1.511556,-0.319523 -3.189217,0.373587 -4.464233,1.246072 -0.861053,0.589212 -1.38639,1.584181 -1.876225,2.505401 -0.958675,1.802956 -0.397242,4.536101 -2.011875,5.786168 -2.196632,1.700656 -6.066346,-0.64744 -8.306436,0.678191 -1.44408,0.854572 0.473821,3.524034 1.591204,4.775879 1.507138,1.688502 3.968728,2.331397 6.157561,2.861291 1.604549,0.388443 4.938238,0.190755 4.938238,0.190755 0,0 -0.244234,-3.089567 0.487727,-4.32373 1.482539,-2.499716 4.342774,-4.099692 7.072035,-4.832404 2.32904,-0.625262 4.96825,-0.377839 7.194,0.572259 1.57489,0.672277 3.06314,1.889262 3.90182,3.433549 0.75082,1.382533 0.73158,4.705236 0.73158,4.705236 0,0 4.18778,1.124319 5.85272,0.06359 2.24916,-1.432926 3.14413,-4.657544 3.53603,-7.375774 0.44114,-3.059744 -0.54037,-6.215478 -1.46319,-9.156131 -0.74348,-2.36922 -1.18567,-5.386684 -3.23119,-6.676347 -1.09577,-0.690871 -3.84084,0.06358 -3.84084,0.06358 l -1.28029,2.09828 -6.2627,0.953764 -1.09738,-2.225448 c 0,0 4.00424,0.800319 5.10434,-0.508674 0.17775,-0.211507 -0.061,-0.826596 -0.061,-0.826596 l -5.1653,-0.890179 c 0,0 0.085,-0.994472 0.24387,-1.462441 0.34745,-1.023257 0.6127,-2.280743 1.52415,-2.861291 1.35125,-0.86068 3.38264,-1.002103 4.7995,-0.254338 1.14098,0.602163 2.01189,3.306384 2.01189,3.306384 0,0 3.77167,-0.370338 5.24306,0.63584 2.20073,1.504926 2.97161,4.578942 3.96279,7.121438 1.22338,3.138109 2.52407,6.471421 2.37767,9.855558 -0.13587,3.140566 -1.2425,6.338268 -2.98733,8.901796 -0.96266,1.414351 -2.30563,2.755936 -3.90181,3.2428 -1.88261,0.574224 -5.85275,-0.635846 -5.85275,-0.635846 0,0 -1.2841,1.438087 -2.1338,1.780359 -2.43125,0.979354 -5.20132,0.658701 -7.80363,0.508674 -2.59535,-0.149623 -5.42921,-0.04597 -7.68171,-1.398853 -0.574976,-0.34534 -1.280285,-1.589603 -1.280285,-1.589603 0,0 -4.695942,-0.230675 -6.88915,-1.017352 -1.773407,-0.6361 -3.540007,-1.58124 -4.877273,-2.924873 -1.051516,-1.056523 -1.935126,-2.396189 -2.281639,-3.845967 -0.244491,-1.022927 -0.536718,-2.406443 0.208802,-3.148302 1.907182,-1.897816 5.855656,1.053212 8.056481,-0.494501 1.47213,-1.035265 1.241343,-3.396737 2.133808,-4.959571 0.768238,-1.345297 1.457596,-2.887435 2.743465,-3.751469 1.52964,-1.027836 3.546519,-1.634203 5.365003,-1.33527 1.667068,0.274042 3.436088,1.263485 4.267618,2.734123 0.35483,0.62754 0.35446,1.503395 0.061,2.161865 -0.75976,1.704668 -2.55685,2.878383 -4.267614,3.624302 -1.481985,0.646166 -3.214537,0.791671 -4.816307,0.572257 -0.827414,-0.113341 -1.643714,-0.459355 -2.316779,-0.953765 -1.695946,-1.245781 -4.039014,-4.851821 -4.039014,-4.851821 z"
       id="path37"
       inkscape:connector-curvature="0"
       sodipodi:nodetypes="cccaaaaaaaasaacaaaacaaaaccccaccaaacaaaaacaaacaaaaaaaaaaaaacc" />
    <path
       style="fill:#ffffff;stroke:#000000;stroke-width:0.26458332px;stroke-linecap:butt;stroke-linejoin:miter;stroke-opacity:1"
       d="m 110.71527,31.114304 c -0.45644,-0.08597 -1.05127,0.335194 -1.17653,0.849507 -0.14848,0.609521 0.20643,1.532947 0.73533,1.69902 0.56422,0.177159 1.38172,-0.436764 1.47067,-1.104363 0.0823,-0.616357 -0.49669,-1.343803 -1.02947,-1.444164 z"
       id="path74"
       inkscape:connector-curvature="0"
       sodipodi:nodetypes="aaaaa" />
    <path
       style="fill:#ffffff;stroke:#000000;stroke-width:0.26458332px;stroke-linecap:butt;stroke-linejoin:miter;stroke-opacity:1"
       d="m 111.95986,32.301258 c 0.0482,-0.43881 0.35247,-1.015134 0.73533,-1.019412 0.48652,-0.0053 0.9571,0.712191 0.95595,1.274265 -0.001,0.602028 -0.51333,1.442169 -1.02948,1.359215 -0.51042,-0.08202 -0.72664,-1.023472 -0.6618,-1.614068 z"
       id="path77"
       inkscape:connector-curvature="0"
       sodipodi:nodetypes="aaaaa" />
    <ellipse
       style="opacity:1;fill:#803300;fill-opacity:1;stroke:#803300;stroke-width:0.26499999;stroke-linejoin:round;stroke-miterlimit:4;stroke-dasharray:none;stroke-dashoffset:0;stroke-opacity:1"
       id="path79"
       cx="110.88927"
       cy="32.479328"
       rx="0.34192094"
       ry="0.44186649" />
    <ellipse
       style="opacity:1;fill:#803300;fill-opacity:1;stroke:#803300;stroke-width:0.26499999;stroke-linejoin:round;stroke-miterlimit:4;stroke-dasharray:none;stroke-dashoffset:0;stroke-opacity:1"
       id="path81"
       cx="112.99779"
       cy="32.637131"
       rx="0.39890775"
       ry="0.53655219" />
    <path
       style="fill:#ffd5d5;stroke:#ffaaaa;stroke-width:0.26458332px;stroke-linecap:butt;stroke-linejoin:miter;stroke-opacity:1"
       d="m 107.91524,33.966306 c -0.186,-0.04273 -0.4284,0.16658 -0.47944,0.422175 -0.0605,0.30291 0.0841,0.76182 0.29965,0.844352 0.22992,0.08804 0.56305,-0.217056 0.5993,-0.548829 0.0335,-0.306307 -0.2024,-0.667822 -0.41951,-0.717698 z"
       id="path74-3"
       inkscape:connector-curvature="0"
       sodipodi:nodetypes="aaaaa" />
    <path
       style="fill:#ffd5d5;stroke:#ffaaaa;stroke-width:0.26458332px;stroke-linecap:butt;stroke-linejoin:miter;stroke-opacity:1"
       d="m 108.42241,34.55618 c 0.0197,-0.218073 0.14363,-0.504485 0.29964,-0.506611 0.19826,-0.0027 0.39002,0.353933 0.38955,0.633264 -4.9e-4,0.299186 -0.20918,0.716706 -0.41951,0.675481 -0.20799,-0.04076 -0.2961,-0.508629 -0.26968,-0.802134 z"
       id="path77-5"
       inkscape:connector-curvature="0"
       sodipodi:nodetypes="aaaaa" />
    <path
       style="fill:#ffffff;stroke:#000000;stroke-width:0.26458332px;stroke-linecap:butt;stroke-linejoin:miter;stroke-opacity:1"
       d="m 162.87647,47.745663 3.21279,0.09449 c 0,0 1.10882,-1.755952 0.94494,-2.69308 -0.18898,-1.080618 -0.99249,-2.398929 -2.07887,-2.551337 -1.06432,-0.149314 -2.23092,0.851203 -2.64583,1.842632 -0.4318,1.031804 0.56697,3.307295 0.56697,3.307295 z"
       id="path140"
       inkscape:connector-curvature="0"
       sodipodi:nodetypes="ccaaac" />
    <path
       style="fill:#ffffff;stroke:#000000;stroke-width:0.26458332px;stroke-linecap:butt;stroke-linejoin:miter;stroke-opacity:1"
       d="m 169.82178,48.218135 3.26004,0.04725 c 0,0 0.96343,-1.62984 0.85045,-2.504093 -0.15731,-1.217289 -0.81428,-2.9141 -2.03162,-3.071056 -1.19468,-0.154035 -2.3105,1.267402 -2.69308,2.409598 -0.33648,1.004551 0.61421,3.118301 0.61421,3.118301 z"
       id="path142"
       inkscape:connector-curvature="0"
       sodipodi:nodetypes="ccaaac" />
    <path
       style="fill:#4d4d4d;stroke:none;stroke-width:0.26458332px;stroke-linecap:butt;stroke-linejoin:miter;stroke-opacity:1"
       d="m 163.18357,51.218319 0.51972,-0.661458 0.14174,1.063059 0.75595,0.259857 0.47247,-0.850447 0.21261,0.944941 0.99219,0.118118 0.25986,-0.803199 0.63783,0.897692 1.08669,0.0945 0.21261,-0.779576 0.54334,0.732329 1.01581,-0.02363 0.0709,-0.826823 0.63783,0.826823 1.06306,-0.118118 -0.11812,-0.897694 0.73233,0.685083 0.4961,-0.14174 0.0709,-1.086684 0.37798,0.755955 -0.80321,0.637833 -1.60639,0.259858 -2.38598,-0.02363 -2.50409,-0.0945 -1.74814,-0.354351 z"
       id="path146"
       inkscape:connector-curvature="0" />
    <path
       style="fill:#4d4d4d;stroke:none;stroke-width:0.26458332px;stroke-linecap:butt;stroke-linejoin:miter;stroke-opacity:1"
       d="m 162.92371,49.824531 0.14174,0.779576 0.42523,-0.661458 0.59058,0.141743 0.18899,1.133927 0.54334,-0.968563 0.75596,0.165365 0.0945,1.181174 0.4961,-1.086681 0.82682,0.14174 0.35435,1.110306 0.33073,-1.063059 1.29929,0.02363 0.30711,1.039434 0.51972,-1.133927 0.89769,-0.04725 0.35435,1.228421 0.25986,-1.393785 0.47247,-0.212614 0.54334,1.228423 0.23623,-1.582774 0.47248,-0.118118 0.42522,0.826822 -0.0709,-1.110305 -1.15755,0.708705 -1.58278,0.236236 -2.008,0.07087 -2.10249,-0.118118 -2.36235,-0.4016 z"
       id="path968"
       inkscape:connector-curvature="0" />
    <path
       style="fill:none;stroke:#ff0000;stroke-width:0.5291667;stroke-linecap:butt;stroke-linejoin:miter;stroke-opacity:1"
       d="m 161.27007,49.269488 c 0,0 2.43047,0.777399 3.68526,0.964942 1.965,0.293694 4.001,0.613859 5.95313,0.241234 1.40057,-0.267343 3.9215,-1.736897 3.9215,-1.736897 0,0 -0.50616,2.18415 -1.32291,2.798333 -1.37201,1.031728 -3.35156,0.767524 -5.05544,0.771955 -1.54348,0.004 -3.18358,-0.01046 -4.58296,-0.675459 -1.05178,-0.49982 -2.59858,-2.364108 -2.59858,-2.364108 z"
       id="path144"
       inkscape:connector-curvature="0"
       sodipodi:nodetypes="caacaaac" />
    <path
       style="fill:#ffd5d5;stroke:#ff8080;stroke-width:0.26458332px;stroke-linecap:butt;stroke-linejoin:miter;stroke-opacity:1"
       d="m 157.89191,43.280819 c 0.11811,-0.236236 3.04743,-2.149739 3.04743,-2.149739 0,0 0.0225,-3.083287 -0.28349,-4.582962 -0.23552,-1.154265 -0.56874,-2.324573 -1.18117,-3.330914 -0.70669,-1.161219 -2.78757,-2.976564 -2.78757,-2.976564 0,0 -2.51871,1.703991 -3.40179,2.905693 -0.93801,1.276458 -1.97112,2.789777 -1.86626,4.370351 0.10308,1.553687 1.2104,2.994933 2.38598,4.015996 1.09527,0.951306 4.01599,1.677268 4.01599,1.677268"
       id="path970"
       inkscape:connector-curvature="0"
       sodipodi:nodetypes="ccaacaaac" />
    <path
       style="fill:#ffd5d5;stroke:#ff8080;stroke-width:0.26458332px;stroke-linecap:butt;stroke-linejoin:miter;stroke-opacity:1"
       d="m 173.53067,40.871222 3.42541,2.456844 c 0,0 2.5772,-2.017762 3.68527,-3.212798 1.08259,-1.167558 2.42726,-2.294276 2.85844,-3.827008 0.32126,-1.141982 0.15487,-2.461159 -0.33073,-3.543527 -0.58612,-1.306424 -2.92931,-3.141927 -2.92931,-3.141927 0,0 -3.16509,0.828848 -4.53572,1.67727 -0.76262,0.472061 -1.52991,1.055995 -1.96075,1.842633 -0.63506,1.159503 -0.69826,2.576294 -0.73233,3.897881 -0.0334,1.294752 0.51972,3.850632 0.51972,3.850632 z"
       id="path972"
       inkscape:connector-curvature="0"
       sodipodi:nodetypes="ccaaacaaac" />
    <ellipse
       style="opacity:1;fill:#c6e9af;fill-opacity:1;stroke:#c6e9af;stroke-width:0.26458332;stroke-linejoin:round;stroke-miterlimit:4;stroke-dasharray:none;stroke-dashoffset:0;stroke-opacity:1"
       id="path974"
       cx="165.38055"
       cy="45.749474"
       rx="1.0394346"
       ry="1.263858" />
    <ellipse
       style="opacity:1;fill:#c6e9af;fill-opacity:1;stroke:#c6e9af;stroke-width:0.26458332;stroke-linejoin:round;stroke-miterlimit:4;stroke-dasharray:none;stroke-dashoffset:0;stroke-opacity:1"
       id="path976"
       cx="172.42036"
       cy="46.127453"
       rx="1.015811"
       ry="1.4292225" />
    <ellipse
       style="opacity:1;fill:#000000;fill-opacity:1;stroke:#000000;stroke-width:0.26458332;stroke-linejoin:round;stroke-miterlimit:4;stroke-dasharray:none;stroke-dashoffset:0;stroke-opacity:1"
       id="path978"
       cx="165.67584"
       cy="45.867592"
       rx="0.38978794"
       ry="0.41341144" />
    <ellipse
       style="opacity:1;fill:#000000;fill-opacity:1;stroke:#000000;stroke-width:0.26458332;stroke-linejoin:round;stroke-miterlimit:4;stroke-dasharray:none;stroke-dashoffset:0;stroke-opacity:1"
       id="path978-2"
       cx="172.79834"
       cy="46.30463"
       rx="0.38978794"
       ry="0.41341147" />
    <ellipse
       style="opacity:1;fill:#ffaaaa;fill-opacity:1;stroke:#ffd5d5;stroke-width:0.26458332;stroke-linejoin:round;stroke-miterlimit:4;stroke-dasharray:none;stroke-dashoffset:0;stroke-opacity:1"
       id="path995"
       cx="168.0123"
       cy="64.809601"
       rx="0.63476509"
       ry="0.4009043" />
    <rect
       style="opacity:1;fill:none;fill-opacity:1;stroke:#cccccc;stroke-width:0.26499999;stroke-linejoin:round;stroke-miterlimit:4;stroke-dasharray:none;stroke-dashoffset:0;stroke-opacity:1"
       id="rect10-6-7"
       width="60.589584"
       height="60.589584"
       x="138.47157"
       y="83.197769"
       inkscape:export-filename="monster_3.png"
       inkscape:export-xdpi="95.999367"
       inkscape:export-ydpi="95.999367" />
    <rect
       style="opacity:1;fill:none;fill-opacity:1;stroke:#cccccc;stroke-width:0.26499999;stroke-linejoin:round;stroke-miterlimit:4;stroke-dasharray:none;stroke-dashoffset:0;stroke-opacity:1"
       id="rect10-6-3-5"
       width="60.589584"
       height="60.589584"
       x="9.770689"
       y="148.11519"
       inkscape:export-filename="monster_3.png"
       inkscape:export-xdpi="95.999367"
       inkscape:export-ydpi="95.999367" />
    <rect
       style="opacity:1;fill:none;fill-opacity:1;stroke:#cccccc;stroke-width:0.26499999;stroke-linejoin:round;stroke-miterlimit:4;stroke-dasharray:none;stroke-dashoffset:0;stroke-opacity:1"
       id="rect10-6-6-3"
       width="60.589584"
       height="60.589584"
       x="74.215637"
       y="148.30417"
       inkscape:export-filename="monster_3.png"
       inkscape:export-xdpi="95.999367"
       inkscape:export-ydpi="95.999367" />
    <rect
       style="opacity:1;fill:none;fill-opacity:1;stroke:#cccccc;stroke-width:0.26499999;stroke-linejoin:round;stroke-miterlimit:4;stroke-dasharray:none;stroke-dashoffset:0;stroke-opacity:1"
       id="rect10-6-7-5"
       width="60.589584"
       height="60.589584"
       x="138.28259"
       y="148.11519"
       inkscape:export-filename="monster_3.png"
       inkscape:export-xdpi="95.999367"
       inkscape:export-ydpi="95.999367" />
    <rect
       style="opacity:1;fill:none;fill-opacity:1;stroke:#cccccc;stroke-width:0.26499999;stroke-linejoin:round;stroke-miterlimit:4;stroke-dasharray:none;stroke-dashoffset:0;stroke-opacity:1"
       id="rect10-6-3-6"
       width="60.589584"
       height="60.589584"
       x="9.77069"
       y="213.88303"
       inkscape:export-filename="monster_3.png"
       inkscape:export-xdpi="95.999367"
       inkscape:export-ydpi="95.999367" />
    <rect
       style="opacity:1;fill:none;fill-opacity:1;stroke:#cccccc;stroke-width:0.26499999;stroke-linejoin:round;stroke-miterlimit:4;stroke-dasharray:none;stroke-dashoffset:0;stroke-opacity:1"
       id="rect10-6-6-2"
       width="60.589584"
       height="60.589584"
       x="74.215637"
       y="214.07202"
       inkscape:export-filename="monster_3.png"
       inkscape:export-xdpi="95.999367"
       inkscape:export-ydpi="95.999367" />
    <rect
       style="opacity:1;fill:none;fill-opacity:1;stroke:#cccccc;stroke-width:0.26499999;stroke-linejoin:round;stroke-miterlimit:4;stroke-dasharray:none;stroke-dashoffset:0;stroke-opacity:1"
       id="rect10-6-7-9"
       width="60.589584"
       height="60.589584"
       x="138.28258"
       y="213.88303"
       inkscape:export-filename="monster_3.png"
       inkscape:export-xdpi="95.999367"
       inkscape:export-ydpi="95.999367" />
    <path
       style="fill:#3e3748;stroke:#3e3748;stroke-width:0.26458332px;stroke-linecap:butt;stroke-linejoin:miter;stroke-opacity:1;fill-opacity:1"
       d="m 22.082509,102.44525 0.38052,-1.87731 c 0,0 1.508744,-0.004 1.919205,-0.5255 0.405718,-0.515003 0.06091,-1.965913 0.06091,-1.965913 0,0 -0.49596,0.966315 -0.882695,1.332964 -0.24245,0.22986 -0.542177,0.597909 -0.863951,0.50806 -0.289795,-0.0809 -0.395676,-0.4954 -0.428452,-0.794489 -0.03054,-0.278735 0.06193,-0.584456 0.22946,-0.809311 0.267633,-0.359206 1.133983,-0.721111 1.133983,-0.721111 0,0 -1.037166,-0.04256 -1.436782,0.232557 -0.425516,0.29295 -0.750899,0.824853 -0.777336,1.340775 -0.02419,0.472119 0.582189,1.293188 0.582189,1.293188 l -0.394926,1.8988 z"
       id="path138-2"
       inkscape:connector-curvature="0"
       sodipodi:nodetypes="ccacaaaacaaccc" />
    <path
       style="fill:#6f6f91;stroke:#6f6f91;stroke-width:0.26458332px;stroke-linecap:butt;stroke-linejoin:miter;stroke-opacity:1"
       d="m 34.206844,100.54687 -1.086681,-4.819192 2.69308,3.307292 c 0,0 2.22058,-0.694093 3.354538,-0.614212 0.943913,0.06649 2.69308,0.897692 2.69308,0.897692 l 3.023812,-4.441219 -1.086683,4.819197 -0.425223,1.181172 c 0,0 1.007825,2.03668 0.519719,2.88207 -0.744775,1.28994 -4.204987,1.5119 -4.204987,1.5119 l 0.283483,1.32291 c 0,0 1.667463,1.63672 2.740327,1.98438 0.973831,0.31557 2.114194,0.3638 3.071055,0 0.886319,-0.33698 1.595105,-1.1043 2.126118,-1.88988 0.730914,-1.08132 1.322917,-3.68527 1.322917,-3.68527 0,0 1.099233,1.75798 1.937128,2.31511 0.933344,0.6206 2.102195,1.14333 3.212796,0.99219 0.72291,-0.0984 1.37788,-0.61879 1.842635,-1.18118 0.648318,-0.78451 1.133927,-2.83482 1.133927,-2.83482 0,0 0.8554,1.54727 1.46466,2.17336 0.377935,0.38838 0.781434,0.92332 1.322916,0.94495 0.825827,0.033 1.673631,-0.58405 2.126115,-1.27567 0.808519,-1.23581 0.566965,-4.393971 0.566965,-4.393971 0,0 2.991644,6.843511 3.118302,10.488831 0.14064,4.04775 -2.645834,11.859 -2.645834,11.859 0,0 0.420545,-4.8627 -0.992186,-6.56733 -0.42589,-0.51389 -1.265436,-0.89712 -1.889879,-0.66146 -0.540983,0.20416 -0.619225,0.98192 -0.850448,1.5119 -0.350531,0.80345 -0.803198,2.50409 -0.803198,2.50409 0,0 -0.739818,-1.6443 -1.322917,-2.3151 -0.405066,-0.46599 -0.864935,-0.98711 -1.464659,-1.13393 -1.119213,-0.27399 -2.545088,-0.15636 -3.401786,0.61421 -1.5859,1.42647 -1.795389,6.14212 -1.795389,6.14212 0,0 -0.607594,-3.76487 -1.464657,-5.43341 -0.40909,-0.79642 -0.928679,-1.62574 -1.700893,-2.07887 -1.007172,-0.591 -2.318098,-0.32325 -3.449034,-0.61421 -0.85372,-0.21964 -2.504091,-0.85044 -2.504091,-0.85044 0,0 -0.9128,2.72858 -1.795389,3.827 -0.323582,0.40271 -0.712032,0.92998 -1.228421,0.94494 -0.895104,0.0259 -1.669687,-0.80595 -2.22061,-1.5119 -0.701986,-0.89952 -1.181176,-3.21281 -1.181176,-3.21281 0,0 -2.867114,0.22916 -3.968748,1.03944 -0.598435,0.44017 -0.927186,1.19177 -1.181177,1.88988 -0.581788,1.59908 -0.708705,5.05544 -0.708705,5.05544 0,0 -0.575579,-3.16896 -1.606399,-4.29948 -0.341708,-0.37476 -0.870645,-0.57377 -1.370164,-0.66146 -0.608134,-0.10676 -1.260303,-0.0162 -1.842634,0.18898 -0.65508,0.23085 -1.38364,0.5427 -1.748139,1.13394 -0.83147,1.3487 -0.519718,4.7247 -0.519718,4.7247 0,0 -0.641334,-3.22477 -1.181175,-4.77195 -0.199669,-0.57225 -0.315881,-1.23691 -0.755953,-1.65365 -0.344008,-0.32577 -0.880586,-0.68945 -1.322917,-0.51971 -0.558929,0.21448 -0.655023,1.02635 -0.8032,1.60639 -0.639704,2.50415 -0.14174,7.93751 -0.283481,7.74852 -0.141741,-0.18899 -2.087111,-5.35752 -2.55134,-8.17374 -0.317721,-1.92744 -0.250624,-3.90822 -0.141741,-5.85863 0.201117,-3.6026 1.464658,-10.725065 1.464658,-10.725065 0,0 0.352125,2.727335 1.039435,3.874245 0.532648,0.88883 1.231783,2.14283 2.267857,2.12612 0.445391,-0.007 0.733556,-0.55284 0.944941,-0.94494 0.480756,-0.89175 0.614211,-2.97656 0.614211,-2.97656 0,0 0.09672,2.13262 0.708705,2.92931 0.622502,0.81037 1.672843,1.40698 2.693081,1.46466 0.627776,0.0355 1.311443,-0.25632 1.748139,-0.70871 0.861601,-0.89257 1.27567,-3.49628 1.27567,-3.49628 0,0 0.427461,2.67018 1.133929,3.77976 0.419354,0.65864 1.085131,1.14674 1.748139,1.55915 0.605929,0.37691 1.282686,0.67343 1.984376,0.8032 0.820926,0.15182 1.715647,0.2272 2.504091,-0.0473 0.785353,-0.27337 1.984376,-1.51191 1.984376,-1.51191 l 0.28348,-1.65364 c 0,0 -2.305704,-0.0556 -3.260043,-0.61422 -0.549924,-0.32188 -1.129728,-0.83514 -1.228423,-1.46465 -0.142236,-0.90723 1.039437,-2.55133 1.039437,-2.55133 z"
       id="path128"
       inkscape:connector-curvature="0"
       sodipodi:nodetypes="cccaccccaccaaacaaacaaacacaaacaaacaaacaaacaacaaaacaaaasaacaaacaaacaaaaccaac" />
    <path
       style="fill:#3e3748;stroke:#3e3748;stroke-width:0.26458332px;stroke-linecap:butt;stroke-linejoin:miter;stroke-opacity:1"
       d="m 21.780878,117.22507 c -0.519717,-1.41741 -1.417411,-5.81139 -1.417411,-5.81139 l 1.275669,-9.35491 0.572029,0.1612 0.231171,8.34327 c 0.01178,0.42506 -0.661458,6.66183 -0.661458,6.66183 z"
       id="path130"
       inkscape:connector-curvature="0"
       sodipodi:nodetypes="ccccsc" />
    <path
       style="fill:#3e3748;stroke:#3e3748;stroke-width:0.26458332px;stroke-linecap:butt;stroke-linejoin:miter;stroke-opacity:1"
       d="m 28.017485,101.91703 -0.508776,0.053 -0.388918,9.0657 c 0,0 1.937129,6.89806 1.937129,6.70907 0,-0.18898 0.425222,-6.28385 0.377976,-6.66183 -0.04725,-0.37797 -1.417411,-9.16592 -1.417411,-9.16592 z"
       id="path132"
       inkscape:connector-curvature="0"
       sodipodi:nodetypes="cccscc" />
    <path
       style="fill:#3e3748;stroke:#3e3748;stroke-width:0.26458332px;stroke-linecap:butt;stroke-linejoin:miter;stroke-opacity:1"
       d="m 48.900668,102.62573 0.09449,8.78795 1.511906,6.47285 0.755952,-6.4256 -1.607429,-8.79799 z"
       id="path134"
       inkscape:connector-curvature="0"
       sodipodi:nodetypes="cccccc" />
    <path
       style="fill:#3e3748;stroke:#3e3748;stroke-width:0.26458332px;stroke-linecap:butt;stroke-linejoin:miter;stroke-opacity:1"
       d="m 57.027158,102.15326 -0.283484,7.70127 1.700895,7.41779 0.566962,-7.65402 -1.253555,-7.44453 z"
       id="path136"
       inkscape:connector-curvature="0"
       sodipodi:nodetypes="cccccc" />
    <path
       style="fill:#ffd5f6;stroke:#000000;stroke-width:0.26458332px;stroke-linecap:butt;stroke-linejoin:miter;stroke-opacity:1"
       d="m 37.365314,99.126981 c -0.757461,0.05594 -0.913185,2.096209 -0.913185,2.096209 l 2.02683,1.35703 -0.03443,-1.7216 c 0,0 -0.402933,-1.781584 -1.079216,-1.731639 z"
       id="path159"
       inkscape:connector-curvature="0"
       sodipodi:nodetypes="accca" />
    <path
       style="fill:#ffd5f6;stroke:#000000;stroke-width:0.26458332px;stroke-linecap:butt;stroke-linejoin:miter;stroke-opacity:1"
       d="m 39.470033,100.6379 c 0,0 0.156749,-1.456267 0.786753,-1.530734 0.7129,-0.08427 1.376807,1.464184 1.376807,1.464184 l -1.707536,1.93006 z"
       id="path163"
       inkscape:connector-curvature="0"
       sodipodi:nodetypes="caccc" />
    <path
       style="fill:#ff80b2;stroke:#ff80b2;stroke-width:0.26458332px;stroke-linecap:butt;stroke-linejoin:miter;stroke-opacity:1"
       d="m 34.065104,97.57031 0.425222,2.362353 0.897694,-0.708707 z"
       id="path165"
       inkscape:connector-curvature="0" />
    <path
       style="fill:#ff80b2;stroke:#ff80b2;stroke-width:0.26458332px;stroke-linecap:butt;stroke-linejoin:miter;stroke-opacity:1"
       d="m 42.286086,99.507438 1.559153,-2.315104 -0.897695,2.976566 z"
       id="path167"
       inkscape:connector-curvature="0" />
    <path
       style="fill:none;stroke:#ff0000;stroke-width:0.52916667;stroke-linecap:butt;stroke-linejoin:miter;stroke-opacity:1"
       d="m 35.388021,102.20052 0.519718,1.41741 0.992187,-0.23624 1.086681,0.80321 0.992188,-0.28349 0.8032,0.47248 0.944938,-1.03944 1.228422,0.37797 0.661458,-1.27567"
       id="path169"
       inkscape:connector-curvature="0"
       sodipodi:nodetypes="ccccccccc" />
    <ellipse
       style="opacity:1;fill:#800066;fill-opacity:1;stroke:#800066;stroke-width:0.26458332;stroke-linejoin:round;stroke-miterlimit:4;stroke-dasharray:none;stroke-dashoffset:0;stroke-opacity:1"
       id="path171"
       cx="37.530262"
       cy="100.96566"
       rx="0.4711808"
       ry="0.44356948" />
    <ellipse
       style="opacity:1;fill:#800066;fill-opacity:1;stroke:#800066;stroke-width:0.26458332;stroke-linejoin:round;stroke-miterlimit:4;stroke-dasharray:none;stroke-dashoffset:0;stroke-opacity:1"
       id="path173"
       cx="40.44463"
       cy="100.69238"
       rx="0.45088971"
       ry="0.42216435" />
    <ellipse
       style="opacity:1;fill:#ff80b2;fill-opacity:1;stroke:#ff80b2;stroke-width:0.52916664;stroke-linejoin:round;stroke-miterlimit:4;stroke-dasharray:none;stroke-dashoffset:0;stroke-opacity:1"
       id="path982"
       cx="38.55357"
       cy="115.73679"
       rx="0.14174107"
       ry="0.25985864" />
    <path
       style="fill:#3e3748;stroke:#3e3748;stroke-width:0.26458332px;stroke-linecap:butt;stroke-linejoin:miter;stroke-opacity:1;fill-opacity:1"
       d="m 27.527845,101.89915 0.07773,-1.969989 c 0,0 -1.375272,-0.430134 -1.618035,-1.019593 -0.249663,-0.606221 0.442985,-1.916322 0.442985,-1.916322 0,0 0.232836,1.060909 0.513156,1.514138 0.175735,0.284138 0.371572,0.71651 0.705621,0.711782 0.300846,-0.0042 0.509036,-0.377973 0.61708,-0.658784 0.100686,-0.261703 0.08933,-0.5809 -0.01525,-0.841073 -0.167064,-0.415627 -0.912317,-0.98671 -0.912317,-0.98671 0,0 1.013665,0.223627 1.329805,0.591645 0.33663,0.391873 0.515442,0.989218 0.409294,1.494794 -0.09714,0.462651 -0.893035,1.101712 -0.893035,1.101712 l -0.102902,1.9367 z"
       id="path138-2-7"
       inkscape:connector-curvature="0"
       sodipodi:nodetypes="ccacaaaacaaccc" />
    <path
       style="fill:#3e3748;stroke:#3e3748;stroke-width:0.26458332px;stroke-linecap:butt;stroke-linejoin:miter;stroke-opacity:1;fill-opacity:1"
       d="m 48.956615,102.93423 0.07773,-1.96999 c 0,0 -1.375272,-0.43013 -1.618035,-1.019596 -0.249663,-0.606221 0.442985,-1.916322 0.442985,-1.916322 0,0 0.232836,1.060909 0.513156,1.514138 0.175735,0.284138 0.371572,0.71651 0.705621,0.71179 0.300846,-0.004 0.509036,-0.377981 0.61708,-0.658792 0.100686,-0.261703 0.08933,-0.5809 -0.01525,-0.841073 -0.167064,-0.415627 -0.912317,-0.98671 -0.912317,-0.98671 0,0 1.013665,0.223627 1.329805,0.591645 0.33663,0.391873 0.515442,0.989218 0.409294,1.494794 -0.09714,0.462656 -0.893035,1.101716 -0.893035,1.101716 l -0.102902,1.9367 z"
       id="path138-2-7-0"
       inkscape:connector-curvature="0"
       sodipodi:nodetypes="ccacaaaacaaccc" />
    <path
       style="fill:#3e3748;stroke:#3e3748;stroke-width:0.26458332px;stroke-linecap:butt;stroke-linejoin:miter;stroke-opacity:1;fill-opacity:1"
       d="m 57.679917,102.27277 -0.07773,-1.97 c 0,0 1.375272,-0.430125 1.618035,-1.019583 0.249663,-0.606221 -0.442985,-1.916322 -0.442985,-1.916322 0,0 -0.232836,1.060909 -0.513156,1.514138 -0.175735,0.284138 -0.371572,0.716512 -0.705621,0.711782 -0.300846,-0.004 -0.509036,-0.377973 -0.61708,-0.658784 -0.100686,-0.261703 -0.08933,-0.5809 0.01525,-0.841073 0.167064,-0.415627 0.912317,-0.98671 0.912317,-0.98671 0,0 -1.013665,0.223627 -1.329805,0.591645 -0.33663,0.391873 -0.515442,0.989218 -0.409294,1.494794 0.09714,0.462648 0.893035,1.101703 0.893035,1.101703 l 0.102902,1.93671 z"
       id="path138-2-7-9"
       inkscape:connector-curvature="0"
       sodipodi:nodetypes="ccacaaaacaaccc" />
    <path
       style="fill:#005500;stroke:#005500;stroke-width:0.26458332px;stroke-linecap:butt;stroke-linejoin:miter;stroke-opacity:1"
       d="m 92.892445,92.921448 c 1.525406,1.132532 4.10913,1.099313 5.12985,2.640624 0.891833,1.346688 1.267616,3.513755 0.178961,4.731118 -2.433513,2.72119 -7.841311,0.21188 -11.333411,1.65039 -2.903424,1.19601 -7.40832,2.62363 -7.396535,5.55631 0.01672,4.16117 8.526132,4.09647 10.55796,7.81185 0.905056,1.65498 1.535836,4.14059 0.2386,5.55632 -2.212681,2.41479 -7.813562,-1.05934 -10.200065,1.21028 -1.71066,1.62688 -2.008225,4.83916 -0.715796,6.76661 2.250998,3.35701 7.718356,4.48523 11.989549,4.236 1.553631,-0.0907 2.852135,-1.197 4.115812,-2.03548 1.130382,-0.75004 1.787313,-2.08375 3.042126,-2.64063 1.140204,-0.50602 2.492974,-0.46522 3.757914,-0.49511 2.19545,-0.0519 4.36593,0.5012 6.56145,0.55013 2.34764,0.0523 4.69197,-0.19394 7.03865,-0.27507 1.82894,-0.0632 3.69245,0.16316 5.48774,-0.16504 0.99984,-0.18278 2.24049,-0.24598 2.86318,-0.99023 1.78276,-2.13078 1.18044,-5.35343 0.89474,-8.0319 -0.21182,-1.98577 -0.25819,-4.43138 -1.90878,-5.72136 -1.82139,-1.42345 -4.90191,-0.0172 -7.0983,-0.8802 -1.93977,-0.76213 -4.52679,-1.72603 -4.9509,-3.63086 -0.2362,-1.06088 1.67019,-2.86068 1.67019,-2.86068 l 7.45619,3.52083 1.96843,-0.55013 c 0,0 -5.20405,-1.25752 -6.62109,-3.13574 -0.28595,-0.37901 -0.46911,-0.99905 -0.17895,-1.37533 1.67494,-2.17197 8.47021,-1.70541 8.47021,-1.70541 l -5e-5,-3.795888 c 0,0 -3.82592,-0.499259 -5.01056,0.605146 -0.3521,0.328248 0.15334,1.029962 -0.17895,1.375322 -0.50254,0.52229 -1.45881,0.60191 -2.20703,0.49512 -0.64365,-0.0919 -1.67018,-0.93522 -1.67018,-0.93522 0,0 2.62102,-3.074624 1.72984,-4.401039 -1.20166,-1.788519 -4.72804,-1.595653 -6.80006,-0.715179 -1.74301,0.740655 -2.74921,2.685433 -3.22106,4.40105 -0.35364,1.285818 -0.2215,2.772508 0.41755,3.960928 0.32505,0.60452 1.27328,0.77653 1.61053,1.37533 0.34221,0.60758 0.42896,1.36152 0.29825,2.03549 -0.12686,0.65408 -0.88889,1.10604 -1.01405,1.76041 -0.1744,0.91174 -0.16304,1.99538 0.41755,2.75065 0.80233,1.04375 2.43384,1.23405 3.69827,1.76042 1.49761,0.62344 3.14564,0.93308 4.59302,1.65039 1.09336,0.54186 2.54632,0.93101 3.04211,1.98046 0.59307,1.25535 0.47384,3.12196 -0.59648,4.07097 -0.90711,0.80429 -2.61887,0.82321 -3.75794,0.33007 -1.9819,-0.85802 -2.14866,-3.57971 -3.69826,-5.00618 -1.42857,-1.31507 -3.00792,-2.90344 -5.01055,-3.13574 -1.80345,-0.2092 -3.69883,0.6718 -5.12987,1.7054 -1.69324,1.22299 -2.782855,3.10854 -3.578964,4.95117 -0.694542,1.60754 0.127966,3.7027 -0.95439,5.11622 -1.288952,1.68333 -3.691089,2.47961 -5.845648,3.02572 -1.534263,0.38888 -3.463309,0.94476 -4.771958,0.11003 -0.744737,-0.47504 -1.330707,-1.6336 -0.894745,-2.36555 0.963636,-1.6179 4.052171,-0.44588 5.845652,-1.2653 1.708637,-0.78067 3.428648,-1.85022 4.414056,-3.35579 1.364299,-2.08444 2.59861,-4.89389 1.610538,-7.1517 -0.765784,-1.74985 -3.322882,-2.209 -5.070202,-3.19076 -1.428361,-0.80254 -3.783111,-0.77194 -4.414063,-2.20051 -0.353488,-0.80036 0.117931,-1.91935 0.835091,-2.47558 1.534546,-1.1902 4.000438,-0.34524 5.964954,-0.71517 2.812465,-0.5296 6.447809,-0.11621 8.291279,-2.14552 1.18037,-1.29934 1.0252,-3.426993 0.53685,-5.061186 -0.64982,-2.174531 -2.35041,-4.153308 -4.354413,-5.446293 -1.562094,-1.007867 -3.588108,-1.337526 -5.487758,-1.485352 -0.678281,-0.05278 -1.785299,-0.366438 -2.028085,0.220053 -0.246185,0.594702 0.834351,1.031159 1.372001,1.430339 z"
       id="path1035"
       inkscape:connector-curvature="0"
       sodipodi:nodetypes="caaaaaaaaaaaaaaaaaaaacccaaccaaacaaaaaaaaaaaaaaaaaaaaaaaaaaaaaaaaaac" />
    <path
       style="fill:#008000;stroke:#008000;stroke-width:0.26458332px;stroke-linecap:butt;stroke-linejoin:miter;stroke-opacity:1"
       d="m 108.86914,129.96131 c -2.21798,-1.05604 -4.67186,-2.7965 -5.08922,-5.06618 -0.24452,-1.32981 0.5981,-2.8826 1.75395,-3.70895 1.69811,-1.21405 4.3469,-1.62543 6.3641,-0.94313 1.67144,0.56532 3.16751,2.12325 3.47507,3.74047 0.20332,1.06915 -1.24776,3.04627 -1.24776,3.04627 l 5.51873,2.35827 -4.81738,6.69209 1.30949,0.72582 3.29408,0.28216 c 0,0 -0.46337,-2.44583 0.45927,-2.97309 0.64935,-0.37107 1.6152,0.1856 2.17545,0.6645 0.71514,0.61133 1.32127,1.60805 1.12755,2.48943 -0.20335,0.92516 -2.19353,1.98178 -2.19353,1.98178 0,0 -0.77189,-0.42818 -1.20582,-0.4679 -1.54191,-0.14122 -3.27611,0.0469 -4.55553,0.853 -0.82087,0.51723 -1.61543,2.31222 -1.61543,2.31222 l -3.58856,-1.64827 1.9405,-3.24469 c 0,0 -0.87669,-2.91342 -0.20599,-4.15378 0.62196,-1.15024 3.45098,-2.17689 3.45098,-2.17689 0,0 -4.45323,0.13995 -6.34995,-0.76313 z"
       id="path1037"
       inkscape:connector-curvature="0"
       sodipodi:nodetypes="aaaaacccccaaacaacccaca" />
    <path
       style="fill:#916f6f;stroke:#916f6f;stroke-width:0.26458332px;stroke-linecap:butt;stroke-linejoin:miter;stroke-opacity:1"
       d="m 93.548593,91.931213 c 0.29824,-0.385091 2.863166,-5.061198 2.863166,-5.061198 l 2.028084,3.795899 c 0,0 -0.596494,3.190752 -0.835083,2.860677 -0.238599,-0.330076 -4.056167,-1.595378 -4.056167,-1.595378 z"
       id="path1054"
       inkscape:connector-curvature="0" />
    <path
       style="fill:#916f6f;stroke:#916f6f;stroke-width:0.26458332px;stroke-linecap:butt;stroke-linejoin:miter;stroke-opacity:1"
       d="m 99.871433,94.681867 c 0.119306,-0.220054 1.610537,-1.595385 1.610537,-1.595385 l 2.92283,-1.155269 0.53685,3.575843 -3.69829,2.695645 -1.610528,-3.575851"
       id="path1056"
       inkscape:connector-curvature="0" />
    <path
       style="fill:#916f6f;stroke:#916f6f;stroke-width:0.26458332px;stroke-linecap:butt;stroke-linejoin:miter;stroke-opacity:1"
       d="m 100.34863,101.39345 c -0.1193,-0.33008 -2.028081,-3.46582 -2.028081,-3.46582 l -2.445632,-0.385092 -1.72983,2.365557 0.835094,3.850925 z"
       id="path1058"
       inkscape:connector-curvature="0" />
    <path
       style="fill:#916f6f;stroke:#916f6f;stroke-width:0.26458332px;stroke-linecap:butt;stroke-linejoin:miter;stroke-opacity:1"
       d="m 91.580157,103.15387 -1.312287,-3.905926 -2.50528,-1.65039 -3.280722,1.760411 1.550884,4.951185 z"
       id="path1060"
       inkscape:connector-curvature="0" />
    <path
       style="fill:#916f6f;stroke:#916f6f;stroke-width:0.26458332px;stroke-linecap:butt;stroke-linejoin:miter;stroke-opacity:1"
       d="m 83.587125,106.28961 -3.51932,-3.74089 -3.51932,1.37533 -0.715795,3.52084 5.129855,1.98046 2.982475,0.16504 z"
       id="path1062"
       inkscape:connector-curvature="0" />
    <path
       style="fill:#916f6f;stroke:#916f6f;stroke-width:0.26458332px;stroke-linecap:butt;stroke-linejoin:miter;stroke-opacity:1"
       d="m 87.643289,110.9107 3.161424,2.14551 2.028085,-2.75065 -1.073693,-2.1455 -2.564928,-0.66017 z"
       id="path1064"
       inkscape:connector-curvature="0" />
    <path
       style="fill:#916f6f;stroke:#916f6f;stroke-width:0.26458332px;stroke-linecap:butt;stroke-linejoin:miter;stroke-opacity:1"
       d="m 93.190695,114.37652 0.715791,-1.54037 2.087737,-1.43033 1.789485,2.31055 -1.014042,2.36556 -2.266685,1.7054 z"
       id="path1066"
       inkscape:connector-curvature="0" />
    <path
       style="fill:#916f6f;stroke:#916f6f;stroke-width:0.26458332px;stroke-linecap:butt;stroke-linejoin:miter;stroke-opacity:1"
       d="m 92.594197,119.87782 -0.715795,-1.76041 -2.863171,-0.66016 -2.50528,0.77018 0.05966,2.0905 1.849133,3.02572 2.743879,-1.10026 z"
       id="path1068"
       inkscape:connector-curvature="0" />
    <path
       style="fill:#916f6f;stroke:#916f6f;stroke-width:0.26458332px;stroke-linecap:butt;stroke-linejoin:miter;stroke-opacity:1"
       d="m 84.541517,123.23362 -0.178951,-2.69564 -2.147381,-0.55013 -3.221069,0.3851 -0.656146,2.53059 3.340371,2.03548 z"
       id="path1070"
       inkscape:connector-curvature="0" />
    <path
       style="fill:#916f6f;stroke:#916f6f;stroke-width:0.26458332px;stroke-linecap:butt;stroke-linejoin:miter;stroke-opacity:1"
       d="m 83.16958,128.01975 2.982473,2.47559 1.252641,-1.04526 0.238595,-2.97069 -1.968431,-0.55013 z"
       id="path1072"
       inkscape:connector-curvature="0" />
    <path
       style="fill:#916f6f;stroke:#916f6f;stroke-width:0.26458332px;stroke-linecap:butt;stroke-linejoin:miter;stroke-opacity:1"
       d="m 91.222261,130.38532 -1.073693,-1.32032 0.238599,-2.20052 2.087733,-1.54037 1.78948,0.3851 1.252643,2.31054 z"
       id="path1074"
       inkscape:connector-curvature="0" />
    <path
       style="fill:#cccccc;stroke:#000000;stroke-width:0.26458332px;stroke-linecap:butt;stroke-linejoin:miter;stroke-opacity:1"
       d="m 111.14519,99.908095 1.78948,-0.165038 c 0,0 0.24936,-1.185526 0,-1.705394 -0.23916,-0.498607 -0.72117,-1.092307 -1.31228,-1.100272 -0.54988,-0.007 -1.11243,0.499806 -1.25264,0.990239 -0.19404,0.678676 0.77544,1.980465 0.77544,1.980465 z"
       id="path1076"
       inkscape:connector-curvature="0"
       sodipodi:nodetypes="ccaaac" />
    <path
       style="fill:#ff0000;stroke:#ff6600;stroke-width:0.26458332px;stroke-linecap:butt;stroke-linejoin:miter;stroke-opacity:1"
       d="m 116.86474,104.52919 3.28522,-1.10026 c 0,0 -0.26638,1.81544 0.17759,1.37533 0.44395,-0.44011 3.81794,-1.54037 3.81794,-1.54037 l -0.26637,1.32032 4.1731,-0.88021 0.26637,1.2653 4.0843,-0.93522 -2.57488,1.7054 2.93003,0.99023 -5.32735,-0.38509 0.8879,1.32031 -4.70583,-2.03547 0.62152,2.03547 -3.55157,-1.87043 -0.79911,0.8802 -1.77578,-0.77018 z"
       id="path1078"
       inkscape:connector-curvature="0" />
    <path
       style="fill:#cccccc;stroke:#000000;stroke-width:0.26458332px;stroke-linecap:butt;stroke-linejoin:miter;stroke-opacity:1"
       d="m 113.10114,99.84898 1.78948,-0.165049 c 0,0 0.24935,-1.185527 0,-1.705395 -0.23915,-0.498606 -0.72118,-1.092307 -1.31229,-1.100271 -0.54988,-0.007 -1.11243,0.499805 -1.25264,0.990238 -0.19403,0.678676 0.77545,1.980477 0.77545,1.980477 z"
       id="path1076-6"
       inkscape:connector-curvature="0"
       sodipodi:nodetypes="ccaaac" />
    <ellipse
       style="opacity:1;fill:#803300;fill-opacity:1;stroke:#803300;stroke-width:0.52916664;stroke-linejoin:round;stroke-miterlimit:4;stroke-dasharray:none;stroke-dashoffset:0;stroke-opacity:1"
       id="path1095"
       ry="0.44010416"
       rx="0.74561864"
       cy="98.47776"
       cx="111.95049" />
    <path
       style="opacity:1;fill:#803300;fill-opacity:1;stroke:#803300;stroke-width:0.52916664;stroke-linejoin:round;stroke-miterlimit:4;stroke-dasharray:none;stroke-dashoffset:0;stroke-opacity:1"
       id="path1095-0"
       ry="0.37797621"
       rx="0.59058779"
       cy="104.65736"
       cx="114.55042"
       d=""
       inkscape:connector-curvature="0" />
    <ellipse
       style="opacity:1;fill:#803300;fill-opacity:1;stroke:#803300;stroke-width:0.52916664;stroke-linejoin:round;stroke-miterlimit:4;stroke-dasharray:none;stroke-dashoffset:0;stroke-opacity:1"
       id="path1095-6"
       ry="0.44010416"
       rx="0.74561864"
       cy="98.312721"
       cx="113.47152" />
    <ellipse
       style="opacity:1;fill:#ff5555;fill-opacity:1;stroke:#ffaaaa;stroke-width:0.26458332;stroke-linejoin:round;stroke-miterlimit:4;stroke-dasharray:none;stroke-dashoffset:0;stroke-opacity:1"
       id="path1127"
       cx="121.13649"
       cy="100.65079"
       rx="0.7456184"
       ry="1.1827798" />
    <ellipse
       style="opacity:1;fill:#ff5555;fill-opacity:1;stroke:#ffaaaa;stroke-width:0.26458332;stroke-linejoin:round;stroke-miterlimit:4;stroke-dasharray:none;stroke-dashoffset:0;stroke-opacity:1"
       id="path1127-2"
       cx="122.35931"
       cy="100.67828"
       rx="0.7456184"
       ry="1.1827798" />
    <path
       style="fill:#241c1c;stroke:#241c1c;stroke-width:0.26458332px;stroke-linecap:butt;stroke-linejoin:miter;stroke-opacity:1"
       d="m 104.6994,138.81696 c 0,0 1.12426,-0.37943 1.6064,-0.14174 0.55253,0.2724 0.84963,0.95985 0.99219,1.55915 0.18314,0.7699 -0.23623,2.36236 -0.23623,2.36236 0,0 -0.0439,-1.56177 -0.56697,-2.03163 -0.42759,-0.38412 -1.70089,-0.28348 -1.70089,-0.28348 z"
       id="path1144"
       inkscape:connector-curvature="0"
       sodipodi:nodetypes="caacacc" />
    <path
       style="fill:#241c1c;stroke:#241c1c;stroke-width:0.26458332px;stroke-linecap:butt;stroke-linejoin:miter;stroke-opacity:1"
       d="m 120.99907,134.21075 c 0,0 0.6935,-0.9628 1.22392,-1.05007 0.60785,-0.1 1.24951,0.28618 1.71419,0.6906 0.59696,0.51955 1.18259,2.05865 1.18259,2.05865 0,0 -0.94453,-1.24456 -1.64333,-1.32228 -0.57127,-0.0636 -1.54821,0.75924 -1.54821,0.75924 z"
       id="path1144-6"
       inkscape:connector-curvature="0"
       sodipodi:nodetypes="caacacc" />
  </g>
</svg>
